<svg width="58" height="45" viewBox="0 0 58 45" fill="none" xmlns="http://www.w3.org/2000/svg">
<path d="M57.7119 24.5928C57.7542 24.6785 57.7609 24.7677 57.7344 24.8525C57.714 24.9175 57.6728 24.9843 57.6084 25.0449L57.5352 25.1035L29.502 44.6035C29.3708 44.6945 29.1923 44.75 29 44.75C28.8557 44.75 28.7191 44.7191 28.6045 44.665L28.498 44.6035L0.464844 25.1035L0.391602 25.0449C0.327245 24.9843 0.285976 24.9175 0.265625 24.8525C0.239134 24.7677 0.245836 24.6785 0.288086 24.5928C0.289367 24.5902 0.290643 24.5876 0.291992 24.585L0.824219 24.9551L28.8574 44.4551L29 44.5547L29.1426 44.4551L57.1758 24.9551L57.707 24.585C57.7085 24.5877 57.7106 24.59 57.7119 24.5928ZM54.6572 1L40.3857 24.6211L40.1572 25H56.2363L29 43.9453L1.76367 25H17.8428L17.6143 24.6211L3.34277 1H54.6572ZM4.20605 1.62891L18.0605 24.5615C18.1039 24.6334 18.121 24.707 18.1152 24.7773C18.1094 24.8482 18.0796 24.9232 18.0215 24.9941C17.9629 25.0656 17.8766 25.1308 17.7666 25.1777C17.6567 25.2245 17.5299 25.2499 17.3994 25.25H2.69531L3.34961 25.7051L28.8574 43.4482L29 43.5469L29.1426 43.4482L54.6504 25.7051L55.3047 25.25H40.6016C40.4713 25.2494 40.3448 25.2229 40.2354 25.1758C40.1261 25.1287 40.0406 25.0644 39.9824 24.9932C39.9248 24.9225 39.8955 24.8479 39.8896 24.7773C39.8839 24.7071 39.9011 24.6333 39.9443 24.5615L53.7939 1.62891L54.0225 1.25H3.97754L4.20605 1.62891ZM53.1367 1.75L39.5156 24.3027C39.4214 24.4589 39.3769 24.6365 39.3916 24.8174C39.4063 24.9979 39.4791 25.1666 39.5947 25.3086C39.7099 25.4499 39.864 25.5608 40.0381 25.6357C40.2122 25.7106 40.4048 25.7491 40.5986 25.75H53.7109L29 42.9375L4.29004 25.75H17.4004C17.5947 25.7499 17.7881 25.7122 17.9629 25.6377C18.1377 25.5631 18.2924 25.4519 18.4082 25.3105C18.5245 25.1685 18.5983 24.9993 18.6133 24.8184C18.6282 24.6372 18.5836 24.4592 18.4893 24.3027L4.86328 1.75H53.1367ZM55.0996 0.25C55.2301 0.250067 55.3569 0.275451 55.4668 0.322266C55.5768 0.369183 55.6631 0.434401 55.7217 0.505859C55.7798 0.5768 55.8096 0.651815 55.8154 0.722656C55.8212 0.793016 55.804 0.866632 55.7607 0.938477L41.9062 23.8711L41.6777 24.25H57.0332C57.1908 24.25 57.3414 24.2871 57.4639 24.3525C57.5421 24.3943 57.6026 24.4461 57.6484 24.5H41.043L55.3145 0.878906L55.543 0.5H2.45703L2.68555 0.878906L16.957 24.5H0.351562C0.397375 24.4461 0.457888 24.3943 0.536133 24.3525C0.658566 24.2871 0.80916 24.25 0.966797 24.25H16.3223L16.0938 23.8711L2.24414 0.938477C2.20091 0.866758 2.18375 0.792898 2.18945 0.722656C2.19526 0.652112 2.22466 0.577508 2.28223 0.506836C2.34035 0.43559 2.4259 0.371292 2.53516 0.324219C2.61734 0.288853 2.70902 0.264648 2.80469 0.254883L2.90137 0.25H55.0996Z" fill="#B1B7FF" stroke="url(#paint0_linear_612_146)" stroke-width="0.5"/>
<defs>
<linearGradient id="paint0_linear_612_146" x1="29" y1="0" x2="29" y2="45" gradientUnits="userSpaceOnUse">
<stop stop-color="white"/>
<stop offset="1" stop-color="white" stop-opacity="0"/>
</linearGradient>
</defs>
</svg>
