<svg width="129" height="57" viewBox="0 0 129 57" fill="none" xmlns="http://www.w3.org/2000/svg">
<path d="M54 30.2493C54 32.6456 54.7802 34.9438 56.1691 36.6382C57.5579 38.3326 59.4416 39.2846 61.4057 39.2846H75.5538C75.7809 37.4989 76.3484 35.8033 77.2108 34.3341C78.0731 32.8649 79.2061 31.6633 80.5186 30.8259C81.8311 29.9886 83.2864 29.5389 84.7674 29.513C86.2483 29.4872 87.7136 29.886 89.0451 30.6772C89.7736 28.3699 91.0578 26.3859 92.7286 24.9866C94.3995 23.5873 96.3785 22.8383 98.4051 22.8383C100.432 22.8383 102.411 23.5873 104.082 24.9866C105.752 26.3859 107.037 28.3699 107.765 30.6772C109.063 29.9061 110.489 29.5075 111.933 29.5119C113.377 29.5163 114.8 29.9235 116.095 30.7024C116.102 30.5527 116.105 30.4013 116.105 30.248C116.105 27.8517 115.325 25.5536 113.936 23.8591C112.547 22.1647 110.664 21.2128 108.7 21.2128C108.469 21.2128 108.241 21.2274 108.016 21.2526V21.2128C108.016 19.2556 107.608 17.3305 106.83 15.6185C106.053 13.9065 104.931 12.464 103.571 11.4265C102.211 10.389 100.656 9.79065 99.0544 9.68775C97.4524 9.58484 95.8552 9.98075 94.4132 10.8382C93.6845 8.53104 92.4001 6.54723 90.7292 5.14806C89.0583 3.7489 87.0792 3 85.0526 3C83.026 3 81.0469 3.7489 79.376 5.14806C77.7051 6.54723 76.4207 8.53104 75.6921 10.8382C74.25 9.98044 72.6527 9.58429 71.0505 9.68705C69.4484 9.7898 67.894 10.3881 66.5335 11.4256C65.1731 12.4631 64.0513 13.9058 63.2737 15.6179C62.4961 17.3301 62.0883 19.2554 62.0885 21.2128V21.2526C61.862 21.2274 61.6344 21.2128 61.4035 21.2128C59.4396 21.2135 57.5563 22.1659 56.1679 23.8606C54.7795 25.5552 53.9997 27.8533 54 30.2493Z" fill="#F2F2F2"/>
<path d="M66.8969 47.9648C66.8969 50.3611 67.6772 52.6592 69.066 54.3536C70.4548 56.0481 72.3385 57 74.3026 57H121.594C123.558 57 125.442 56.0481 126.831 54.3536C128.22 52.6592 129 50.3611 129 47.9648C129 45.5685 128.22 43.2703 126.831 41.5759C125.442 39.8815 123.558 38.9296 121.594 38.9296C121.363 38.9296 121.135 38.9442 120.909 38.9694C120.909 38.9561 120.909 38.9428 120.909 38.9296C120.91 36.9101 120.476 34.9258 119.651 33.1751C118.826 31.4244 117.639 29.9687 116.208 28.9536C116.023 28.8207 115.832 28.6958 115.638 28.5802C114.343 27.8013 112.919 27.3941 111.475 27.3897C110.032 27.3853 108.606 27.7839 107.308 28.555C106.579 26.2477 105.295 24.2637 103.624 22.8644C101.954 21.4651 99.9745 20.7161 97.9479 20.7161C95.9213 20.7161 93.9422 21.4651 92.2714 22.8644C90.6006 24.2637 89.3164 26.2477 88.5879 28.555C87.2564 27.764 85.7913 27.3655 84.3104 27.3915C82.8296 27.4174 81.3745 27.8672 80.0621 28.7045C78.7498 29.5419 77.6169 30.7434 76.7546 32.2124C75.8923 33.6814 75.3248 35.3769 75.0976 37.1624C75.0249 37.7472 74.9885 38.338 74.9887 38.9296V38.9694C74.7633 38.9442 74.5357 38.9296 74.3048 38.9296C73.3321 38.9292 72.3688 39.1626 71.4701 39.6166C70.5713 40.0705 69.7547 40.7359 69.0668 41.575C68.3789 42.414 67.8332 43.4102 67.4609 44.5065C67.0886 45.6029 66.8969 46.778 66.8969 47.9648Z" fill="#F2F2F2"/>
<path d="M98.4053 23.3379C100.305 23.3379 102.173 24.0401 103.761 25.3701C105.351 26.7016 106.585 28.6014 107.288 30.8281L107.479 31.4287L108.021 31.1074C109.245 30.3803 110.582 30.0076 111.932 30.0117C113.281 30.0159 114.617 30.3963 115.838 31.1309L116.559 31.5645L116.595 30.7246C116.602 30.5675 116.605 30.4084 116.605 30.248C116.605 30.1303 116.601 30.0128 116.598 29.8955C117.653 30.8084 118.543 31.9972 119.199 33.3887C119.991 35.0696 120.41 36.9809 120.409 38.9297V39.5283L120.965 39.4658C121.174 39.4424 121.385 39.4297 121.595 39.4297C123.39 39.4298 125.138 40.2991 126.444 41.8926C127.753 43.4891 128.5 45.6725 128.5 47.9648C128.5 50.2571 127.753 52.4406 126.444 54.0371C125.138 55.6306 123.39 56.4999 121.595 56.5H74.3027C72.5071 56.5 70.7594 55.6305 69.4531 54.0371C68.1446 52.4406 67.3965 50.2571 67.3965 47.9648C67.3965 46.8314 67.5803 45.7103 67.9346 44.667C68.2889 43.6238 68.8059 42.6811 69.4531 41.8916C70.1003 41.1022 70.8635 40.4826 71.6953 40.0625C71.9058 39.9562 72.1202 39.8639 72.3369 39.7842H75.9941L76.0498 39.3477C76.2689 37.6252 76.8154 35.9945 77.6416 34.5869C78.4677 33.1795 79.5474 32.038 80.7871 31.2471C82.0259 30.4567 83.3925 30.0368 84.7764 30.0127C86.16 29.9886 87.5345 30.3614 88.79 31.1074L89.332 31.4297L89.5215 30.8281C90.2245 28.6013 91.4599 26.7016 93.0498 25.3701C94.638 24.0401 96.5052 23.3379 98.4053 23.3379ZM85.0527 3.5C86.9527 3.50003 88.82 4.20139 90.4082 5.53125C91.9982 6.86264 93.2333 8.76257 93.9365 10.9893L94.126 11.5908L94.6689 11.2676C96.0284 10.4593 97.5259 10.0904 99.0225 10.1865C100.519 10.2827 101.98 10.8424 103.268 11.8242C104.556 12.8068 105.628 14.1809 106.375 15.8252C107.122 17.4695 107.516 19.324 107.516 21.2129V21.8115L108.071 21.75C108.281 21.7265 108.49 21.7129 108.699 21.7129C110.495 21.7129 112.244 22.5821 113.55 24.1758C114.387 25.1966 114.991 26.4582 115.32 27.834C114.109 27.2178 112.802 26.8937 111.477 26.8896C110.136 26.8857 108.814 27.2077 107.588 27.8301C106.81 25.6855 105.555 23.8294 103.945 22.4814C102.192 21.013 100.101 20.2159 97.9482 20.2158C95.7951 20.2158 93.7037 21.0129 91.9502 22.4814C90.3407 23.8295 89.0847 25.6854 88.3066 27.8301C87.0449 27.1896 85.6818 26.8674 84.3018 26.8916C82.7238 26.9193 81.179 27.3989 79.793 28.2832C78.408 29.1669 77.2216 30.4285 76.3232 31.959C75.4248 33.4896 74.8368 35.2509 74.6016 37.0996V37.1006C74.5466 37.5427 74.5118 37.9881 74.4971 38.4346C74.4333 38.4326 74.3692 38.4297 74.3047 38.4297C73.5811 38.4295 72.865 38.5515 72.1738 38.7842H61.4053C59.6097 38.7841 57.8618 37.9149 56.5557 36.3213C55.2471 34.7248 54.5 32.5413 54.5 30.249C54.4998 27.9571 55.2467 25.7744 56.5547 24.1777C57.8605 22.5839 59.6078 21.7136 61.4033 21.7129C61.613 21.7129 61.8222 21.7265 62.0332 21.75L62.5889 21.8115V21.2129C62.5886 19.3238 62.9816 17.4687 63.7285 15.8242C64.4754 14.1798 65.5485 12.8058 66.8369 11.8232C68.1243 10.8414 69.5859 10.2816 71.083 10.1855C72.5796 10.0897 74.0771 10.459 75.4365 11.2676L75.9785 11.5908L76.1689 10.9893C76.8722 8.76256 78.1073 6.86264 79.6973 5.53125C81.2854 4.20144 83.1528 3.5 85.0527 3.5ZM97.9482 21.2158C99.8482 21.2159 101.716 21.9181 103.304 23.248C104.012 23.8413 104.649 24.5474 105.201 25.3447C104.946 25.0836 104.68 24.8357 104.402 24.6035C102.649 23.135 100.558 22.3379 98.4053 22.3379C96.2521 22.3379 94.1608 23.135 92.4072 24.6035C90.7978 25.9515 89.5428 27.8076 88.7646 29.9521C87.5027 29.3113 86.1391 28.9886 84.7588 29.0127C83.1808 29.0402 81.6361 29.5201 80.25 30.4043C78.8647 31.2881 77.6778 32.5503 76.7793 34.0811C76.3641 34.7885 76.0157 35.5452 75.7373 36.3369C76.0112 34.9437 76.503 33.6287 77.1855 32.4658C78.0116 31.0584 79.0915 29.9169 80.3311 29.126C81.5697 28.3357 82.9356 27.9159 84.3193 27.8916C85.7029 27.8674 87.0775 28.2396 88.333 28.9854L88.875 29.3066L89.0645 28.7051C89.7675 26.4784 91.003 24.5795 92.5928 23.248C94.1809 21.918 96.0482 21.2158 97.9482 21.2158ZM111.474 27.8896C112.823 27.8937 114.159 28.2741 115.381 29.0088L115.382 29.0098C115.435 29.0416 115.488 29.0751 115.541 29.1084C115.568 29.3589 115.587 29.6116 115.597 29.8662C114.436 29.3084 113.195 29.0156 111.935 29.0117C110.594 29.0077 109.271 29.3297 108.045 29.9521C107.92 29.6082 107.784 29.2715 107.635 28.9434C108.839 28.2439 110.151 27.8857 111.474 27.8896Z" stroke="#9D9D9D" stroke-opacity="0.5"/>
<path d="M8.02418e-08 27.2493C8.02418e-08 29.6456 0.780239 31.9438 2.16907 33.6382C3.5579 35.3326 5.44156 36.2846 7.40567 36.2846H21.5538C21.7809 34.4989 22.3484 32.8033 23.2108 31.3341C24.0731 29.8649 25.2061 28.6633 26.5186 27.8259C27.8311 26.9886 29.2864 26.5389 30.7674 26.513C32.2483 26.4872 33.7136 26.886 35.0451 27.6772C35.7736 25.3699 37.0578 23.3859 38.7286 21.9866C40.3995 20.5873 42.3785 19.8383 44.4051 19.8383C46.4318 19.8383 48.4108 20.5873 50.0817 21.9866C51.7525 23.3859 53.0367 25.3699 53.7651 27.6772C55.0633 26.9061 56.4888 26.5075 57.9327 26.5119C59.3765 26.5163 60.8004 26.9235 62.0954 27.7024C62.102 27.5527 62.1052 27.4013 62.1052 27.248C62.1052 24.8517 61.325 22.5536 59.9362 20.8591C58.5473 19.1647 56.6637 18.2128 54.6996 18.2128C54.4687 18.2128 54.2411 18.2274 54.0156 18.2526V18.2128C54.0158 16.2556 53.6079 14.3305 52.8304 12.6185C52.0529 10.9065 50.9312 9.46397 49.5709 8.42648C48.2106 7.38899 46.6564 6.79065 45.0544 6.68775C43.4524 6.58484 41.8552 6.98075 40.4132 7.83823C39.6845 5.53104 38.4001 3.54723 36.7292 2.14806C35.0583 0.748899 33.0792 0 31.0526 0C29.026 0 27.0469 0.748899 25.376 2.14806C23.7051 3.54723 22.4207 5.53104 21.6921 7.83823C20.25 6.98044 18.6527 6.58429 17.0505 6.68705C15.4484 6.7898 13.894 7.38808 12.5335 8.42561C11.1731 9.46314 10.0513 10.9058 9.27371 12.6179C8.49611 14.3301 8.08826 16.2554 8.08852 18.2128V18.2526C7.86199 18.2274 7.63438 18.2128 7.40349 18.2128C5.43958 18.2135 3.55631 19.1659 2.16791 20.8606C0.779522 22.5552 -0.000288816 24.8533 8.02418e-08 27.2493Z" fill="#9F9F9F"/>
<path d="M12.8969 44.9648C12.8969 47.3611 13.6772 49.6592 15.066 51.3536C16.4548 53.0481 18.3385 54 20.3026 54H67.5943C69.5584 54 71.4421 53.0481 72.8309 51.3536C74.2198 49.6592 75 47.3611 75 44.9648C75 42.5685 74.2198 40.2703 72.8309 38.5759C71.4421 36.8815 69.5584 35.9296 67.5943 35.9296C67.3634 35.9296 67.1348 35.9442 66.9093 35.9694C66.9093 35.9561 66.9093 35.9428 66.9093 35.9296C66.9101 33.9101 66.4763 31.9258 65.6512 30.1751C64.8261 28.4244 63.6387 26.9687 62.2078 25.9536C62.0227 25.8207 61.8321 25.6958 61.6382 25.5802C60.3432 24.8013 58.9193 24.3941 57.4755 24.3897C56.0316 24.3853 54.6061 24.7839 53.3079 25.555C52.5795 23.2477 51.2953 21.2637 49.6244 19.8644C47.9536 18.4651 45.9745 17.7161 43.9479 17.7161C41.9213 17.7161 39.9422 18.4651 38.2714 19.8644C36.6006 21.2637 35.3164 23.2477 34.5879 25.555C33.2564 24.764 31.7913 24.3655 30.3104 24.3915C28.8296 24.4174 27.3745 24.8672 26.0621 25.7045C24.7498 26.5419 23.6169 27.7434 22.7546 29.2124C21.8923 30.6814 21.3248 32.3769 21.0976 34.1624C21.0249 34.7472 20.9885 35.338 20.9887 35.9296V35.9694C20.7633 35.9442 20.5357 35.9296 20.3048 35.9296C19.3321 35.9292 18.3688 36.1626 17.4701 36.6166C16.5713 37.0705 15.7547 37.7359 15.0668 38.575C14.3789 39.414 13.8332 40.4102 13.4609 41.5065C13.0886 42.6029 12.8969 43.778 12.8969 44.9648Z" fill="#F2F2F2"/>
<path d="M44.4053 20.3379C46.3053 20.3379 48.1726 21.0401 49.7607 22.3701C51.3506 23.7016 52.5851 25.6014 53.2881 27.8281L53.4785 28.4287L54.0205 28.1074C55.2447 27.3803 56.5824 27.0076 57.9316 27.0117C59.2807 27.0159 60.6166 27.3963 61.8379 28.1309L62.5586 28.5645L62.5947 27.7246C62.6016 27.5675 62.6055 27.4084 62.6055 27.248C62.6055 27.1303 62.6012 27.0128 62.5977 26.8955C63.6526 27.8084 64.5435 28.9972 65.1992 30.3887C65.9913 32.0696 66.41 33.9809 66.4092 35.9297V36.5283L66.9648 36.4658C67.1744 36.4424 67.3849 36.4297 67.5947 36.4297C69.3903 36.4298 71.1382 37.2991 72.4443 38.8926C73.7529 40.4891 74.5 42.6725 74.5 44.9648C74.5 47.2571 73.7529 49.4406 72.4443 51.0371C71.1382 52.6306 69.3903 53.4999 67.5947 53.5H20.3027C18.5071 53.5 16.7594 52.6305 15.4531 51.0371C14.1446 49.4406 13.3965 47.2571 13.3965 44.9648C13.3965 43.8314 13.5803 42.7103 13.9346 41.667C14.2889 40.6238 14.8059 39.6811 15.4531 38.8916C16.1003 38.1022 16.8635 37.4826 17.6953 37.0625C17.9058 36.9562 18.1202 36.8639 18.3369 36.7842H21.9941L22.0498 36.3477C22.2689 34.6252 22.8154 32.9945 23.6416 31.5869C24.4677 30.1795 25.5474 29.038 26.7871 28.2471C28.0259 27.4567 29.3925 27.0368 30.7764 27.0127C32.16 26.9886 33.5345 27.3614 34.79 28.1074L35.332 28.4297L35.5215 27.8281C36.2245 25.6013 37.4599 23.7016 39.0498 22.3701C40.638 21.0401 42.5052 20.3379 44.4053 20.3379ZM31.0527 0.5C32.9527 0.500029 34.82 1.20139 36.4082 2.53125C37.9982 3.86264 39.2333 5.76257 39.9365 7.98926L40.126 8.59082L40.6689 8.26758C42.0284 7.45933 43.5259 7.09039 45.0225 7.18652C46.5194 7.28271 47.9803 7.84243 49.2676 8.82422C50.5558 9.80678 51.6282 11.1809 52.375 12.8252C53.1218 14.4695 53.5158 16.324 53.5156 18.2129V18.8115L54.0713 18.75C54.2808 18.7265 54.4896 18.7129 54.6992 18.7129C56.495 18.7129 58.2435 19.5821 59.5498 21.1758C60.3865 22.1966 60.9912 23.4582 61.3203 24.834C60.1086 24.2178 58.8025 23.8937 57.4766 23.8896C56.1359 23.8857 54.8137 24.2077 53.5879 24.8301C52.8097 22.6855 51.5548 20.8294 49.9453 19.4814C48.1919 18.013 46.1013 17.2159 43.9482 17.2158C41.7951 17.2158 39.7037 18.0129 37.9502 19.4814C36.3407 20.8295 35.0847 22.6854 34.3066 24.8301C33.0449 24.1896 31.6818 23.8674 30.3018 23.8916C28.7238 23.9193 27.179 24.3989 25.793 25.2832C24.408 26.1669 23.2216 27.4285 22.3232 28.959C21.4248 30.4896 20.8368 32.2509 20.6016 34.0996V34.1006C20.5466 34.5427 20.5118 34.9881 20.4971 35.4346C20.4333 35.4326 20.3692 35.4297 20.3047 35.4297C19.5811 35.4295 18.865 35.5515 18.1738 35.7842H7.40527C5.60965 35.7841 3.86184 34.9149 2.55566 33.3213C1.24713 31.7248 0.5 29.5413 0.5 27.249C0.499779 24.9571 1.24669 22.7744 2.55469 21.1777C3.86047 19.5839 5.60785 18.7136 7.40332 18.7129C7.61304 18.7129 7.82222 18.7265 8.0332 18.75L8.58887 18.8115V18.2129C8.58862 16.3238 8.98164 14.4687 9.72852 12.8242C10.4754 11.1798 11.5485 9.80582 12.8369 8.82324C14.1243 7.84143 15.5859 7.28156 17.083 7.18555C18.5796 7.08966 20.0771 7.45903 21.4365 8.26758L21.9785 8.59082L22.1689 7.98926C22.8722 5.76256 24.1073 3.86264 25.6973 2.53125C27.2854 1.20144 29.1528 0.5 31.0527 0.5ZM43.9482 18.2158C45.8482 18.2159 47.7156 18.9181 49.3037 20.248C50.012 20.8413 50.6495 21.5474 51.2012 22.3447C50.9456 22.0836 50.6795 21.8357 50.4023 21.6035C48.6489 20.135 46.5584 19.3379 44.4053 19.3379C42.2521 19.3379 40.1608 20.135 38.4072 21.6035C36.7978 22.9515 35.5428 24.8076 34.7646 26.9521C33.5027 26.3113 32.1391 25.9886 30.7588 26.0127C29.1808 26.0402 27.6361 26.5201 26.25 27.4043C24.8647 28.2881 23.6778 29.5503 22.7793 31.0811C22.3641 31.7885 22.0157 32.5452 21.7373 33.3369C22.0112 31.9437 22.503 30.6287 23.1855 29.4658C24.0116 28.0584 25.0915 26.9169 26.3311 26.126C27.5697 25.3357 28.9356 24.9159 30.3193 24.8916C31.7029 24.8674 33.0775 25.2396 34.333 25.9854L34.875 26.3066L35.0645 25.7051C35.7675 23.4784 37.003 21.5795 38.5928 20.248C40.1809 18.918 42.0482 18.2158 43.9482 18.2158ZM57.4736 24.8896C58.8229 24.8937 60.1594 25.2741 61.3809 26.0088L61.3818 26.0098C61.4353 26.0416 61.4882 26.0751 61.541 26.1084C61.5684 26.3589 61.5874 26.6116 61.5967 26.8662C60.4364 26.3084 59.1946 26.0156 57.9346 26.0117C56.5937 26.0077 55.2709 26.3297 54.0449 26.9521C53.9201 26.6082 53.7837 26.2715 53.6348 25.9434C54.8394 25.2439 56.1507 24.8857 57.4736 24.8896Z" stroke="#C5C5C5" stroke-opacity="0.5"/>
</svg>
