<svg width="68" height="40" viewBox="0 0 68 40" fill="none" xmlns="http://www.w3.org/2000/svg">
<path d="M5.59962e-08 24.3811C5.59962e-08 25.7337 0.544485 27.0309 1.51367 27.9873C2.48286 28.9438 3.79736 29.4811 5.168 29.4811H15.0412C15.1996 28.4732 15.5957 27.516 16.1975 26.6868C16.7993 25.8575 17.5899 25.1792 18.5058 24.7066C19.4218 24.2339 20.4373 23.9801 21.4708 23.9655C22.5043 23.9509 23.5268 24.176 24.456 24.6226C24.9644 23.3202 25.8606 22.2003 27.0265 21.4105C28.1925 20.6207 29.5736 20.1979 30.9879 20.1979C32.4021 20.1979 33.7832 20.6207 34.9492 21.4105C36.1152 22.2003 37.0113 23.3202 37.5197 24.6226C38.4256 24.1874 39.4204 23.9624 40.428 23.9648C41.4355 23.9673 42.4292 24.1972 43.3329 24.6368C43.3375 24.5523 43.3398 24.4668 43.3398 24.3803C43.3398 23.0277 42.7953 21.7305 41.8261 20.7741C40.8569 19.8177 39.5424 19.2803 38.1718 19.2803C38.0106 19.2803 37.8518 19.2886 37.6945 19.3028V19.2803C37.6946 18.1756 37.41 17.0889 36.8674 16.1226C36.3248 15.1563 35.542 14.342 34.5928 13.7564C33.6435 13.1708 32.5589 12.833 31.4409 12.7749C30.323 12.7169 29.2084 12.9403 28.2021 13.4243C27.6936 12.122 26.7973 11.0023 25.6313 10.2125C24.4652 9.42272 23.0841 9 21.6699 9C20.2556 9 18.8745 9.42272 17.7085 10.2125C16.5425 11.0023 15.6462 12.122 15.1377 13.4243C14.1313 12.9402 13.0167 12.7166 11.8986 12.7746C10.7806 12.8326 9.69583 13.1703 8.74645 13.7559C7.79707 14.3415 7.01424 15.1559 6.4716 16.1223C5.92896 17.0887 5.64435 18.1755 5.64452 19.2803V19.3028C5.48644 19.2886 5.3276 19.2803 5.16648 19.2803C3.79598 19.2807 2.48175 19.8183 1.51287 20.7749C0.543985 21.7315 -0.000201548 23.0286 5.59962e-08 24.3811Z" fill="#707070"/>
<path d="M9.00006 34.3807C9.00006 35.7333 9.54454 37.0305 10.5137 37.987C11.4829 38.9434 12.7974 39.4807 14.1681 39.4807H47.1703C48.5409 39.4807 49.8554 38.9434 50.8246 37.987C51.7938 37.0305 52.3383 35.7333 52.3383 34.3807C52.3383 33.0281 51.7938 31.7309 50.8246 30.7745C49.8554 29.818 48.5409 29.2807 47.1703 29.2807C47.0092 29.2807 46.8496 29.289 46.6923 29.3032C46.6923 29.2957 46.6923 29.2882 46.6923 29.2807C46.6928 28.1408 46.3901 27.0207 45.8143 26.0326C45.2385 25.0444 44.4099 24.2227 43.4113 23.6497C43.2821 23.5747 43.1491 23.5042 43.0139 23.439C42.1101 22.9993 41.1165 22.7694 40.1089 22.767C39.1013 22.7645 38.1065 22.9895 37.2006 23.4247C36.6923 22.1223 35.7961 21.0025 34.6301 20.2126C33.4641 19.4228 32.083 19 30.6688 19C29.2545 19 27.8735 19.4228 26.7075 20.2126C25.5415 21.0025 24.6453 22.1223 24.137 23.4247C23.2078 22.9782 22.1853 22.7533 21.1519 22.768C20.1186 22.7826 19.1031 23.0365 18.1873 23.5091C17.2715 23.9818 16.4809 24.66 15.8792 25.4892C15.2774 26.3184 14.8814 27.2754 14.7229 28.2832C14.6721 28.6133 14.6467 28.9468 14.6469 29.2807V29.3032C14.4895 29.289 14.3307 29.2807 14.1696 29.2807C13.4908 29.2805 12.8186 29.4123 12.1914 29.6685C11.5642 29.9247 10.9943 30.3003 10.5143 30.7739C10.0342 31.2475 9.6534 31.8098 9.39359 32.4287C9.13378 33.0475 9.00006 33.7108 9.00006 34.3807Z" fill="white"/>
<path d="M15 15.3811C15 16.7337 15.5445 18.0309 16.5137 18.9873C17.4829 19.9438 18.7974 20.4811 20.168 20.4811H30.0412C30.1996 19.4732 30.5957 18.516 31.1975 17.6868C31.7993 16.8575 32.5899 16.1792 33.5058 15.7066C34.4218 15.2339 35.4373 14.9801 36.4708 14.9655C37.5043 14.9509 38.5268 15.176 39.456 15.6226C39.9644 14.3202 40.8606 13.2003 42.0265 12.4105C43.1925 11.6207 44.5736 11.1979 45.9879 11.1979C47.4021 11.1979 48.7832 11.6207 49.9492 12.4105C51.1152 13.2003 52.0113 14.3202 52.5197 15.6226C53.4256 15.1874 54.4204 14.9624 55.428 14.9648C56.4355 14.9673 57.4292 15.1972 58.3329 15.6368C58.3375 15.5523 58.3398 15.4668 58.3398 15.3803C58.3398 14.0277 57.7953 12.7305 56.8261 11.7741C55.8569 10.8177 54.5424 10.2803 53.1718 10.2803C53.0106 10.2803 52.8518 10.2886 52.6945 10.3028V10.2803C52.6946 9.17558 52.41 8.08893 51.8674 7.1226C51.3248 6.15627 50.542 5.34201 49.5928 4.75639C48.6435 4.17077 47.5589 3.83304 46.4409 3.77495C45.323 3.71686 44.2084 3.94034 43.2021 4.42435C42.6936 3.12204 41.7973 2.00226 40.6313 1.21249C39.4652 0.422722 38.0841 0 36.6699 0C35.2556 0 33.8745 0.422722 32.7085 1.21249C31.5425 2.00226 30.6462 3.12204 30.1377 4.42435C29.1313 3.94016 28.0167 3.71656 26.8986 3.77456C25.7806 3.83256 24.6958 4.17026 23.7464 4.7559C22.7971 5.34154 22.0142 6.15587 21.4716 7.12229C20.929 8.08872 20.6443 9.17548 20.6445 10.2803V10.3028C20.4864 10.2886 20.3276 10.2803 20.1665 10.2803C18.796 10.2807 17.4817 10.8183 16.5129 11.7749C15.544 12.7315 14.9998 14.0286 15 15.3811Z" fill="#9F9F9F"/>
<path d="M24.0001 25.3807C24.0001 26.7333 24.5445 28.0305 25.5137 28.987C26.4829 29.9434 27.7974 30.4807 29.1681 30.4807H62.1703C63.5409 30.4807 64.8554 29.9434 65.8246 28.987C66.7938 28.0305 67.3383 26.7333 67.3383 25.3807C67.3383 24.0281 66.7938 22.7309 65.8246 21.7745C64.8554 20.818 63.5409 20.2807 62.1703 20.2807C62.0092 20.2807 61.8496 20.289 61.6923 20.3032C61.6923 20.2957 61.6923 20.2882 61.6923 20.2807C61.6928 19.1408 61.3901 18.0207 60.8143 17.0326C60.2385 16.0444 59.4099 15.2227 58.4113 14.6497C58.2821 14.5747 58.1491 14.5042 58.0139 14.439C57.1101 13.9993 56.1165 13.7694 55.1089 13.767C54.1013 13.7645 53.1065 13.9895 52.2006 14.4247C51.6923 13.1223 50.7961 12.0025 49.6301 11.2126C48.4641 10.4228 47.083 10 45.6688 10C44.2545 10 42.8735 10.4228 41.7075 11.2126C40.5415 12.0025 39.6453 13.1223 39.137 14.4247C38.2078 13.9782 37.1853 13.7533 36.1519 13.768C35.1186 13.7826 34.1031 14.0365 33.1873 14.5091C32.2715 14.9818 31.4809 15.66 30.8792 16.4892C30.2774 17.3184 29.8814 18.2754 29.7229 19.2832C29.6721 19.6133 29.6467 19.9468 29.6469 20.2807V20.3032C29.4895 20.289 29.3307 20.2807 29.1696 20.2807C28.4908 20.2805 27.8186 20.4123 27.1914 20.6685C26.5642 20.9247 25.9943 21.3003 25.5143 21.7739C25.0342 22.2475 24.6534 22.8098 24.3936 23.4287C24.1338 24.0475 24.0001 24.7108 24.0001 25.3807Z" fill="#F2F2F2"/>
</svg>
