<svg width="11" height="14" viewBox="0 0 11 14" fill="none" xmlns="http://www.w3.org/2000/svg">
<path d="M6.6011 10.7294C6.86305 10.7294 7.08571 10.6316 7.26907 10.436C7.45244 10.2404 7.54412 10.0029 7.54412 9.72353C7.54412 9.44412 7.45244 9.20662 7.26907 9.01103C7.08571 8.81544 6.86305 8.71765 6.6011 8.71765C6.33915 8.71765 6.1165 8.81544 5.93313 9.01103C5.74977 9.20662 5.65809 9.44412 5.65809 9.72353C5.65809 10.0029 5.74977 10.2404 5.93313 10.436C6.1165 10.6316 6.33915 10.7294 6.6011 10.7294ZM3.42629 10.6959L7.51268 6.33706L6.63254 5.39824L2.54614 9.75706L3.42629 10.6959ZM3.45772 7.37647C3.71967 7.37647 3.94233 7.27868 4.12569 7.08309C4.30905 6.8875 4.40074 6.65 4.40074 6.37059C4.40074 6.09118 4.30905 5.85368 4.12569 5.65809C3.94233 5.4625 3.71967 5.36471 3.45772 5.36471C3.19577 5.36471 2.97312 5.4625 2.78975 5.65809C2.60639 5.85368 2.51471 6.09118 2.51471 6.37059C2.51471 6.65 2.60639 6.8875 2.78975 7.08309C2.97312 7.27868 3.19577 7.37647 3.45772 7.37647ZM5.02941 13.4118C3.59393 13.4118 2.39683 12.8865 1.4381 11.8359C0.479366 10.7853 0 9.47765 0 7.91294C0 6.79529 0.416498 5.57985 1.24949 4.26662C2.08249 2.95338 3.34246 1.53118 5.02941 0C6.71636 1.53118 7.97633 2.95338 8.80933 4.26662C9.64233 5.57985 10.0588 6.79529 10.0588 7.91294C10.0588 9.47765 9.57946 10.7853 8.62073 11.8359C7.66199 12.8865 6.46489 13.4118 5.02941 13.4118ZM5.02941 12.0706C6.11912 12.0706 7.02022 11.6766 7.73272 10.8887C8.44522 10.1007 8.80147 9.10882 8.80147 7.91294C8.80147 7.09706 8.48451 6.175 7.8506 5.14676C7.21668 4.11853 6.27629 2.99529 5.02941 1.77706C3.78254 2.99529 2.84214 4.11853 2.20823 5.14676C1.57431 6.175 1.25735 7.09706 1.25735 7.91294C1.25735 9.10882 1.6136 10.1007 2.3261 10.8887C3.0386 11.6766 3.93971 12.0706 5.02941 12.0706Z" fill="black"/>
</svg>
