<svg width="53" height="31" viewBox="0 0 53 31" fill="none" xmlns="http://www.w3.org/2000/svg">
<path d="M5.59962e-08 15.3811C5.59962e-08 16.7337 0.544485 18.0309 1.51367 18.9873C2.48286 19.9438 3.79736 20.4811 5.168 20.4811H15.0412C15.1996 19.4732 15.5957 18.516 16.1975 17.6868C16.7993 16.8575 17.5899 16.1792 18.5058 15.7066C19.4218 15.2339 20.4373 14.9801 21.4708 14.9655C22.5043 14.9509 23.5268 15.176 24.456 15.6226C24.9644 14.3202 25.8606 13.2003 27.0265 12.4105C28.1925 11.6207 29.5736 11.1979 30.9879 11.1979C32.4021 11.1979 33.7832 11.6207 34.9492 12.4105C36.1152 13.2003 37.0113 14.3202 37.5197 15.6226C38.4256 15.1874 39.4204 14.9624 40.428 14.9648C41.4355 14.9673 42.4292 15.1972 43.3329 15.6368C43.3375 15.5523 43.3398 15.4668 43.3398 15.3803C43.3398 14.0277 42.7953 12.7305 41.8261 11.7741C40.8569 10.8177 39.5424 10.2803 38.1718 10.2803C38.0106 10.2803 37.8518 10.2886 37.6945 10.3028V10.2803C37.6946 9.17558 37.41 8.08893 36.8674 7.1226C36.3248 6.15627 35.542 5.34201 34.5928 4.75639C33.6435 4.17077 32.5589 3.83303 31.4409 3.77495C30.323 3.71686 29.2084 3.94034 28.2021 4.42435C27.6936 3.12204 26.7973 2.00226 25.6313 1.21249C24.4652 0.422722 23.0841 0 21.6699 0C20.2556 0 18.8745 0.422722 17.7085 1.21249C16.5425 2.00226 15.6462 3.12204 15.1377 4.42435C14.1313 3.94016 13.0167 3.71656 11.8986 3.77456C10.7806 3.83256 9.69583 4.17026 8.74645 4.7559C7.79707 5.34154 7.01424 6.15587 6.4716 7.12229C5.92896 8.08872 5.64435 9.17548 5.64452 10.2803V10.3028C5.48644 10.2886 5.3276 10.2803 5.16648 10.2803C3.79598 10.2807 2.48175 10.8183 1.51287 11.7749C0.543985 12.7315 -0.000201548 14.0286 5.59962e-08 15.3811Z" fill="#9F9F9F"/>
<path d="M9.00006 25.3807C9.00006 26.7333 9.54454 28.0305 10.5137 28.987C11.4829 29.9434 12.7974 30.4807 14.1681 30.4807H47.1703C48.5409 30.4807 49.8554 29.9434 50.8246 28.987C51.7938 28.0305 52.3383 26.7333 52.3383 25.3807C52.3383 24.0281 51.7938 22.7309 50.8246 21.7745C49.8554 20.818 48.5409 20.2807 47.1703 20.2807C47.0092 20.2807 46.8496 20.289 46.6923 20.3032C46.6923 20.2957 46.6923 20.2882 46.6923 20.2807C46.6928 19.1408 46.3901 18.0207 45.8143 17.0326C45.2385 16.0444 44.4099 15.2227 43.4113 14.6497C43.2821 14.5747 43.1491 14.5042 43.0139 14.439C42.1101 13.9993 41.1165 13.7694 40.1089 13.767C39.1013 13.7645 38.1065 13.9895 37.2006 14.4247C36.6923 13.1223 35.7961 12.0025 34.6301 11.2126C33.4641 10.4228 32.083 10 30.6688 10C29.2545 10 27.8735 10.4228 26.7075 11.2126C25.5415 12.0025 24.6453 13.1223 24.137 14.4247C23.2078 13.9782 22.1853 13.7533 21.1519 13.768C20.1186 13.7826 19.1031 14.0365 18.1873 14.5091C17.2715 14.9818 16.4809 15.66 15.8792 16.4892C15.2774 17.3184 14.8814 18.2754 14.7229 19.2832C14.6721 19.6133 14.6467 19.9468 14.6469 20.2807V20.3032C14.4895 20.289 14.3307 20.2807 14.1696 20.2807C13.4908 20.2805 12.8186 20.4123 12.1914 20.6685C11.5642 20.9247 10.9943 21.3003 10.5143 21.7739C10.0342 22.2475 9.6534 22.8098 9.39359 23.4287C9.13378 24.0475 9.00006 24.7108 9.00006 25.3807Z" fill="#F2F2F2"/>
</svg>
